<?xml version="1.0"?>
<svg width="1778.3" height="911.38" xmlns="http://www.w3.org/2000/svg" xmlns:svg="http://www.w3.org/2000/svg">
 <metadata id="metadata8">image/svg+xml</metadata>
 <defs>
  <clipPath id="clipPath16">
   <path id="path18" d="m0,729.104004l1422.640015,0l0,-729.104004l-1422.640015,0l0,729.104004z"/>
  </clipPath>
 </defs>
 <g>
  <title>Layer 1</title>
  <g id="g10" transform="matrix(1.25,0,0,-1.25,0,911.38) ">
   <g id="g12">
    <g id="g14" clip-path="url(#clipPath16)">
     <g id="g20">
      <path fill="#ff0000" fill-rule="nonzero" id="path22" d="m1022.571777,136.786102l-99.210999,481.610016c-13.713013,64.153015 -71.307007,110.707031 -136.90802,110.707031l-35.474976,0l9.898987,-46.130005l25.575989,0c43.97998,0 82.588013,-31.221069 91.758057,-74.060059l106.760986,-518.263985l90.375,0l-9.495972,46.137001l-43.279053,0z"/>
     </g>
     <g id="g24">
      <path fill="#ff0000" fill-rule="nonzero" id="path26" d="m1217.796387,46.1348c-37.270996,0 -67.57605,30.327999 -67.57605,67.579006c0,37.258987 30.305054,67.581985 67.57605,67.581985c37.27002,0 67.582031,-30.322998 67.582031,-67.581985c0,-37.251007 -30.312012,-67.579006 -67.582031,-67.579006m0,181.307995c-62.70105,0 -113.724976,-51.013992 -113.724976,-113.728989c0,-62.698006 51.023926,-113.713997 113.724976,-113.713997c62.70105,0 113.727051,51.015991 113.727051,113.713997c0,62.714996 -51.026001,113.728989 -113.727051,113.728989"/>
     </g>
     <g id="g28">
      <path fill="#ff0000" fill-rule="nonzero" id="path30" d="m1380.077637,282.683594l-0.352051,1.257996c-12.766968,40.039001 -49.60498,66.945007 -91.630005,66.945007l-21.990967,0c-18.161987,0 -34.100952,12.888 -37.887939,30.64801l-20.96106,97.849976c-8.198975,38.241028 -42.501953,65.976013 -81.601929,65.976013l-148.033081,0l9.838013,-46.138l138.195068,0c17.479004,0 32.819946,-12.415009 36.486938,-29.5l20.937012,-97.833008c1.589966,-7.434998 4.167969,-14.470001 7.54895,-21.002991l-171.534912,0l9.860962,-46.138l237.151978,0l21.990967,0c21.662109,0 40.685059,-13.744995 47.482056,-34.270996l38.81604,-179.828003l48.246948,0l-42.562988,192.033997z"/>
     </g>
     <g id="g32">
      <path fill="#003888" fill-rule="nonzero" id="path34" d="m0,395.862305l56.071999,0l29.659004,-140.371994l80.593002,0l10.188995,-48.235992l-136.661999,0l-39.851002,188.607986z"/>
     </g>
     <g id="g36">
      <path fill="#003888" fill-rule="nonzero" id="path38" d="m286.217804,274.453094l-28.653992,58.325989l-0.498016,0l-5.251984,-58.325989l34.403992,0zm-69.778,121.408997l54.840012,0l106.290985,-188.608002l-58.210999,0l-13.296997,26.949997l-57.959,0l-2.531998,-26.949997l-56.339996,0l27.207993,188.608002z"/>
     </g>
     <g id="g40">
      <path fill="#003888" fill-rule="nonzero" id="path42" d="m426.15921,313.425812l31.414001,0c6.161987,-0.171997 11.746002,0.903015 16.757996,3.227997c5.295013,2.237 7.169006,7.438995 5.618988,15.615997c-1.290985,6.105011 -4.271973,10.751007 -8.935974,13.937012c-5.199005,3.182983 -13.431,4.772003 -24.703003,4.772003l-28.087006,0l7.934998,-37.553009zm-73.514984,82.436981l109.237976,0c16.804016,0 32.005005,-4.471985 45.611023,-13.415985c13.537964,-9.029999 22.372986,-22.533997 26.511963,-40.509003c2.106995,-9.975983 1.908997,-19.395996 -0.593994,-28.255005c-2.985962,-8.598999 -8.856995,-14.919983 -17.609009,-18.960999c17.581055,-6.882996 30.119019,-22.575989 37.613037,-47.089996c0.804993,-2.236984 1.661987,-5.118988 2.578003,-8.643997c1.078003,-3.528 2.127014,-7.309998 3.145996,-11.352005c2.46698,-8.51799 5.44397,-15.30899 8.932007,-20.381989l-56.172028,0c-4.511993,9.563995 -8.051971,19.256989 -10.626007,29.082001c-1.159973,4.651993 -2.621979,9.264008 -4.384979,13.832001c-1.596985,4.220001 -3.658997,8.100983 -6.174011,11.631989c-2.429993,3.532013 -5.588989,6.334991 -9.477997,8.403992c-3.871979,1.981018 -8.772003,2.973022 -14.703003,2.973022l-31.868988,0l13.928986,-65.923004l-56.096985,0l-39.85199,188.608978z"/>
     </g>
     <g id="g44">
      <path fill="#003888" fill-rule="nonzero" id="path46" d="m637.1875,255.490204l21.971985,0c8.903015,0 15.622986,1.679993 20.156006,5.04599c4.617981,3.363007 7.794983,7.417999 9.539001,12.163025c1.625,4.918976 2.413025,10.050995 2.366028,15.401001c-0.317017,5.43399 -0.924011,10.265991 -1.812988,14.493988c-0.713013,3.362 -1.84906,7.544983 -3.404053,12.552002c-1.870972,4.915985 -4.86499,9.830994 -8.982971,14.751007c-3.970032,5.003998 -9.327026,9.273987 -16.065002,12.812988c-6.684021,3.277008 -15.104004,4.916016 -25.257019,4.916016l-17.977966,0l19.46698,-92.136017zm-85.731995,140.371979l92.145996,0c30.200989,-0.515991 53.60498,-10.190979 70.226013,-29.026978c16.164001,-18.662018 26.771973,-40.335999 31.815002,-65.019012c13.495972,-61.839996 -10.893005,-93.359985 -73.160034,-94.561981l-81.174988,0l-39.85199,188.607971l0,0z"/>
     </g>
     <g id="g48">
      <path fill="#003888" fill-rule="nonzero" id="path50" d="m751.419373,395.862305l56.072021,0l39.854004,-188.608002l-56.074036,0l-39.85199,188.608002z"/>
     </g>
     <g id="g52">
      <path fill="#ff0000" fill-rule="nonzero" id="path54" d="m326.34671,524.616211l21.463989,-100.399994l454.473969,0l-21.464966,100.399994l-454.472992,0z"/>
     </g>
     <g id="g56">
      <path fill="#ffffff" fill-rule="nonzero" id="path58" d="m371.087891,505.09671l26.032013,0l16.112976,-36.097015l0.161011,0l0.859009,36.097015l25.988983,0l12.96402,-61.359009l-17.26001,0l-8.317993,39.369995l-0.20401,0l-1.962982,-39.369995l-13.657013,0l-18.644989,39.369995l-0.165009,0l8.321991,-39.369995l-17.26001,0l-12.967987,61.359009z"/>
     </g>
     <g id="g60">
      <path fill="#ffffff" fill-rule="nonzero" id="path62" d="m491.354004,465.59671l-9.32901,18.975006l-0.16098,0l-1.718018,-18.975006l11.208008,0zm-22.721008,39.5l17.868011,0l34.610016,-61.359009l-18.965027,0l-4.330994,8.766998l-18.877991,0l-0.830017,-8.766998l-18.356995,0l8.882996,61.359009z"/>
     </g>
     <g id="g64">
      <path fill="#ffffff" fill-rule="nonzero" id="path66" d="m536.946777,478.27829l10.234985,0c2.01001,-0.057007 3.828003,0.292999 5.460022,1.049011c1.726013,0.725983 2.338013,2.421997 1.83197,5.078979c-0.419983,1.987 -1.388977,3.499023 -2.91095,4.533997c-1.69104,1.036011 -4.373047,1.555023 -8.045044,1.555023l-9.151978,0l2.580994,-12.21701zm-23.942017,26.817993l35.591003,0c5.470032,0 10.424988,-1.453003 14.855042,-4.36499c4.41095,-2.938995 7.28894,-7.332001 8.630981,-13.179016c0.690002,-3.243988 0.622009,-6.306976 -0.192017,-9.190979c-0.97699,-2.800018 -2.888977,-4.854004 -5.740967,-6.170013c5.729004,-2.238983 9.810974,-7.343994 12.248962,-15.317993c0.263,-0.730011 0.544983,-1.665009 0.838989,-2.812988c0.35199,-1.14801 0.692017,-2.378021 1.026001,-3.693024c0.801025,-2.770996 1.769043,-4.981995 2.907043,-6.629974l-18.300049,0c-1.464966,3.110992 -2.621948,6.264984 -3.458984,9.460999c-0.373962,1.513977 -0.849976,3.013 -1.424988,4.5c-0.521973,1.372986 -1.192993,2.634979 -2.013,3.78299c-0.791992,1.148987 -1.81897,2.061005 -3.085999,2.733002c-1.263,0.644989 -2.856995,0.967987 -4.789978,0.967987l-10.379028,0l4.531006,-21.444977l-18.276001,0l-12.968018,61.358978z"/>
     </g>
     <g id="g68">
      <path fill="#ffffff" fill-rule="nonzero" id="path70" d="m578.278809,505.09671l18.267029,0l4.465942,-21.152008l0.164001,0l11.818054,21.152008l22.544983,0l-16.475037,-23.920013l32.93103,-37.438995l-22.786011,0l-19.708984,23.880005l-3.819031,-5.75l3.828003,-18.130005l-18.265991,0l-12.963989,61.359009z"/>
     </g>
     <g id="g72">
      <path fill="#ffffff" fill-rule="nonzero" id="path74" d="m644.548828,505.09671l49.108032,0l3.317993,-15.692993l-30.844055,0l1.624023,-7.683014l27.999023,0l3.085999,-14.608002l-27.999023,0l1.622986,-7.68399l31.777039,0l3.315002,-15.69101l-50.045044,0l-12.961975,61.359009z"/>
     </g>
     <g id="g76">
      <path fill="#ffffff" fill-rule="nonzero" id="path78" d="m722.178223,489.40329l-16.619995,0l-3.315002,15.692993l51.53302,0l3.315002,-15.692993l-16.642029,0l9.646973,-45.665985l-18.267944,0l-9.650024,45.665985z"/>
     </g>
    </g>
   </g>
   <rect fill="#ffffff" id="rect3059" transform="matrix(0.8,0,0,-0.8,0,729.104) " y="-25.019537" x="1778.3" height="953.58118" width="201.88431"/>
   <rect fill="#ffffff" id="rect3061" transform="matrix(0.8,0,0,-0.8,0,729.104) " y="911.38" x="-51.54493" height="111.68068" width="1924.344"/>
   <rect fill="#ffffff" id="rect3063" transform="matrix(0.8,0,0,-0.8,0,729.104) " y="-63.678234" x="-77.31739" height="1082.4435" width="81.612801"/>
   <rect fill="#ffffff" id="rect3065" transform="matrix(0.8,0,0,-0.8,0,729.104) " y="-55.087414" x="-150.33937" height="68.72657" width="1975.8889"/>
  </g>
  <rect id="svg_1" height="136" width="628" y="253.619995" x="395.699951" stroke-width="5" stroke="#ffffff" fill="#ffffff"/>
 </g>
</svg>